<svg viewBox="0 0 24 24" width="24" height="24" xmlns="http://www.w3.org/2000/svg"><path d="M1.483 3.743c.355-.277.811-.442 1.506-.601.03-.688.11-1.155.313-1.547.281-.54.722-.981 1.262-1.262C5.206 0 6.048 0 7.733 0h11.514c1.685 0 2.527 0 3.169.333.54.281.981.722 1.261 1.262.333.641.333 1.484.333 3.169v11.513c0 1.685 0 2.528-.333 3.169-.197.38-.473.711-.808.971-.034.03-.069.058-.105.086-.57.445-1.398.6-3.054.908L8.391 23.52c-1.657.309-2.485.463-3.176.253a2.957 2.957 0 0 1-1.472-1.009c-.445-.569-.599-1.398-.908-3.054L.726 8.391C.418 6.734.263 5.906.473 5.215a2.96 2.96 0 0 1 1.01-1.472Z" fill="#00B377"/><path fill-rule="evenodd" clip-rule="evenodd" d="M22.257 19.626c.332-.26.456-.475.559-.885.197-.454.03-1.046-.279-2.702L20.428 4.72c-.308-1.657-.365-2.269-.713-2.622-.263-.375-.529-.557-.974-.668-.454-.197-1.046-.029-2.702.279L4.72 3.818c-.623.116-.523.098-.749.141-.002.241-.002.149-.002.805v11.513c0 1.685-.056 2.297.221 2.708.19.418.418.645.835.836.411.276 1.023.22 2.708.22h11.514c1.685 0 2.297.056 2.708-.22.121-.061.197-.11.302-.195Z" fill="#fff"/><path fill-rule="evenodd" clip-rule="evenodd" d="M7.89 15.596v-9c0-.828.673-1.5 1.503-1.5H12.4c3.32 0 6.012 2.686 6.012 6s-2.692 6-6.012 6H9.393c-.83 0-1.503-.672-1.503-1.5Zm4.129-.938a3.568 3.568 0 0 0 3.574-3.562c0-1.968-1.6-3.563-3.574-3.563h-1.106a.375.375 0 0 0-.376.375v6.375c0 .208.168.375.376.375h1.106Z"/></svg>