<svg xmlns="http://www.w3.org/2000/svg" xmlns:xlink="http://www.w3.org/1999/xlink" width="395" height="395"><defs><radialGradient id="g" cx="50%" cy="49.996%" r="50%" fx="50%" fy="49.996%"><stop offset="0%" stop-color="#F1F1F1" stop-opacity=".6"/><stop offset="45%" stop-color="#FDFDFD" stop-opacity=".2"/><stop offset="100%" stop-color="#FFF" stop-opacity="0"/></radialGradient><radialGradient id="h" cx="47.989%" cy="49.864%" r="57.902%" fx="47.989%" fy="49.864%" gradientTransform="scale(.84593 1) rotate(26.52 .524 .684)"><stop offset="0%" stop-color="#F1F1F1" stop-opacity=".8"/><stop offset="57%" stop-color="#FDFDFD" stop-opacity=".4"/><stop offset="100%" stop-color="#FFF" stop-opacity="0"/></radialGradient><radialGradient id="i" cx="50%" cy="49.996%" r="50%" fx="50%" fy="49.996%"><stop offset="0%" stop-color="#3091F1"/><stop offset="100%" stop-color="#3097F1" stop-opacity="0"/></radialGradient><radialGradient id="l" cx="57.334%" cy="52.948%" r="65.856%" fx="57.334%" fy="52.948%" gradientTransform="matrix(-.0641 .63484 -.66722 -.02726 .963 .18)"><stop offset="0%" stop-color="#FFF" stop-opacity=".2"/><stop offset="63.838%" stop-color="#FFF" stop-opacity=".1"/><stop offset="100%" stop-color="#FFF" stop-opacity="0"/><stop offset="100%" stop-color="#FFF" stop-opacity="0"/></radialGradient><linearGradient id="d" x1="24.183%" x2="88.158%" y1="93.109%" y2="20.093%"><stop offset="0%" stop-color="#ED79FF"/><stop offset="3%" stop-color="#D87BFD"/><stop offset="11%" stop-color="#A182F7"/><stop offset="20%" stop-color="#4A8CED"/><stop offset="30%" stop-color="#1D91E8"/><stop offset="43%" stop-color="#26A4E5"/><stop offset="61%" stop-color="#36C6DF"/><stop offset="100%" stop-color="#40E18B"/></linearGradient><linearGradient id="e" x1="49.995%" x2="49.995%" y1="172.625%" y2="35.891%"><stop offset="0%" stop-color="#723DC4"/><stop offset="32%" stop-color="#6E50C4" stop-opacity=".68"/><stop offset="96%" stop-color="#6381C4" stop-opacity=".04"/><stop offset="100%" stop-color="#6285C4" stop-opacity="0"/></linearGradient><linearGradient id="j" x1="78.828%" x2="18.799%" y1="15.797%" y2="87.022%"><stop offset="8%" stop-color="#F1F1F1"/><stop offset="68%" stop-color="#F3FBFF"/><stop offset="100%" stop-color="#B4DBFC"/></linearGradient><linearGradient id="k" x1="83.225%" x2="17.211%" y1="11.417%" y2="88.079%"><stop offset="0%" stop-color="#484848"/><stop offset="100%" stop-color="#191919"/></linearGradient><path id="a" d="M0 0h395v395H0z"/><path id="c" d="M338.467 241.627c-2.898-11.978-2.898-44.728 0-98.457C337.337 63.772 272.65 0 193.243 0 113.836 0 49.15 63.772 48.018 143.17c2.902 53.716 2.902 86.535 0 98.457-4.45 17.884-15.368 57.591-30.824 75.278C-4.64 338.355-.778 351.689 2.7 358.627c3.479 6.937 15.074 16.704 40.484 5.797 25.41-10.907 40.198-17.785 70.247 4.441 48.378 32.18 111.344 32.18 159.722 0 30.049-22.226 44.827-15.554 70.247-4.441s37.005 1.16 40.483-5.797c3.479-6.957 7.537-20.193-14.395-41.643-15.564-17.668-26.56-57.385-31.02-75.357Z"/></defs><g fill="none" fill-rule="evenodd"><mask id="b" fill="#fff"><use xlink:href="#a"/></mask><g mask="url(#b)"><g transform="translate(2.5 1)"><g transform="translate(1.938)"><mask id="f" fill="#fff"><use xlink:href="#c"/></mask><use xlink:href="#c" fill="url(#d)" fill-rule="nonzero"/><path fill="url(#e)" fill-rule="nonzero" d="M369.39 317.003c-6.279-7.251-11.89-18.168-16.626-29.763H33.712c-4.638 11.595-10.24 22.512-16.518 29.763C-4.64 338.355-.778 351.69 2.7 358.627c3.479 6.937 15.074 16.704 40.484 5.797 25.41-10.907 40.198-17.785 70.247 4.441 48.378 32.18 111.344 32.18 159.722 0 30.049-22.226 44.827-15.554 70.247-4.441s37.005 1.16 40.483-5.797c3.479-6.957 7.439-20.272-14.493-41.624Z" mask="url(#f)" opacity=".35"/></g><circle cx="201.946" cy="138.149" r="134.018" fill="url(#g)" fill-rule="nonzero"/><path fill="url(#h)" fill-rule="nonzero" d="M321.175 139.593c-20.29 41.938-81.556 54.31-136.72 27.513-55.163-26.795-83.384-82.391-63.093-124.329 20.29-41.938 81.556-54.299 136.72-27.513 55.164 26.786 83.384 82.402 63.093 124.33Z"/><circle cx="183.099" cy="171.774" r="110.445" fill="url(#i)" fill-rule="nonzero"/><circle cx="195.175" cy="144.811" r="91.314" fill="url(#j)" fill-rule="nonzero"/><circle cx="195.175" cy="144.811" r="57.492" fill="url(#k)" fill-rule="nonzero"/><circle cx="210.642" cy="121.818" r="18.846" fill="#FFF" fill-rule="nonzero"/><ellipse cx="39.254" cy="336.675" fill="url(#l)" fill-rule="nonzero" rx="21.253" ry="33.409" transform="scale(-1 1) rotate(-50 0 420.855)"/><ellipse cx="350.74" cy="336.675" fill="url(#l)" fill-rule="nonzero" rx="21.253" ry="33.409" transform="rotate(-50 350.74 336.675)"/></g></g></g></svg>